<?xml version="1.0" encoding="iso-8859-1"?>
<!-- Generator: Adobe Illustrator 19.0.0, SVG Export Plug-In . SVG Version: 6.00 Build 0)  -->
<svg version="1.1" id="Layer_1" xmlns="http://www.w3.org/2000/svg" xmlns:xlink="http://www.w3.org/1999/xlink" x="0px" y="0px"
	 viewBox="0 0 261.444 261.444" style="enable-background:new 0 0 261.444 261.444;" xml:space="preserve">
<g>
	<polygon style="fill:#C7E9F4;" points="21.632,166.646 239.804,7.505 111.113,177.066 	"/>
	<polygon style="fill:#C7E9F4;" points="239.804,7.505 111.113,177.066 215.442,253.939 	"/>
	<g>
		<polygon style="fill:#C7E9F4;" points="111.113,177.066 111.113,249.244 151.577,206.881 		"/>
		<g>
			<path style="fill:#13829B;" d="M235.384,1.446L17.212,160.587c-5.498,4.01-3.212,12.721,3.553,13.509l82.849,9.647v65.501
				c0,6.791,8.291,10.031,12.924,5.18l35.904-37.59l58.551,43.143c4.663,3.434,11.339,0.503,11.913-5.3L247.268,8.243
				C247.932,1.8,240.575-2.343,235.384,1.446z M202.926,43.689l-95.198,125.432l-66.194-7.708L202.926,43.689z M118.614,230.533
				v-38.625l21.653,15.955L118.614,230.533z M209.276,240.079c-13.238-9.754-74.135-54.625-87.589-64.539L229.729,33.187
				L209.276,240.079z"/>
			<path style="fill:#13829B;" d="M201.288,123.259c-4.117-0.409-7.794,2.604-8.202,6.726l-4.94,49.956
				c-0.407,4.122,2.604,7.794,6.726,8.201c0.251,0.025,0.5,0.037,0.747,0.037c3.81,0,7.072-2.892,7.455-6.763l4.939-49.956
				C208.421,127.338,205.41,123.666,201.288,123.259z"/>
		</g>
	</g>
</g>
<g>
</g>
<g>
</g>
<g>
</g>
<g>
</g>
<g>
</g>
<g>
</g>
<g>
</g>
<g>
</g>
<g>
</g>
<g>
</g>
<g>
</g>
<g>
</g>
<g>
</g>
<g>
</g>
<g>
</g>
</svg>
